<svg width="90" height="80" viewBox="0 0 90 80" fill="none" xmlns="http://www.w3.org/2000/svg">
<rect x="1" y="1" width="88" height="78" rx="13" stroke="#EDEAE7" stroke-width="2"/>
<path d="M69.4111 26.4307H63.1536V15.0484C63.1536 13.9623 62.2731 13.0817 61.1869 13.0817H27.8131C26.7271 13.0817 25.8464 13.9622 25.8464 15.0484V26.4307H19.5889C17.0585 26.4307 15 28.4894 15 31.0197V50.8057C15 53.336 17.0585 55.3945 19.5889 55.3945H25.8468V65.9516C25.8468 67.0377 26.7273 67.9183 27.8135 67.9183H61.1865C62.2726 67.9183 63.1532 67.0378 63.1532 65.9516V55.3945H69.4111C71.9415 55.3945 74 53.336 74 50.8057V31.0197C74 28.4895 71.9415 26.4307 69.4111 26.4307ZM29.7797 17.0151H59.2202V26.4307H29.7797V17.0151ZM59.2198 63.9849H29.7802C29.7802 63.6006 29.7802 48.3703 29.7802 47.895H59.2199C59.2198 48.3823 59.2198 63.6153 59.2198 63.9849ZM70.0667 50.8058C70.0667 51.1673 69.7726 51.4613 69.4111 51.4613H63.1532V45.9285C63.1532 44.8424 62.2727 43.9618 61.1865 43.9618H27.8135C26.7274 43.9618 25.8468 44.8423 25.8468 45.9285V51.4613H19.5889C19.2274 51.4613 18.9333 51.1673 18.9333 50.8058V31.0198C18.9333 30.6583 19.2274 30.3642 19.5889 30.3642C21.0977 30.3642 67.9378 30.3642 69.4111 30.3642C69.7726 30.3642 70.0667 30.6583 70.0667 31.0198V50.8058Z" fill="#EDEAE7"/>
<path d="M61.1869 34.0455H56.1808C55.0947 34.0455 54.2141 34.926 54.2141 36.0122C54.2141 37.0984 55.0946 37.9789 56.1808 37.9789H61.1869C62.273 37.9789 63.1536 37.0984 63.1536 36.0122C63.1536 34.926 62.2731 34.0455 61.1869 34.0455Z" fill="#EDEAE7"/>
<path d="M53.0222 57.0746H35.9777C34.8916 57.0746 34.011 57.9551 34.011 59.0413C34.011 60.1275 34.8915 61.008 35.9777 61.008H53.0221C54.1082 61.008 54.9888 60.1275 54.9888 59.0413C54.9888 57.9551 54.1083 57.0746 53.0222 57.0746Z" fill="#EDEAE7"/>
<path d="M53.0222 50.8718H35.9777C34.8916 50.8718 34.011 51.7523 34.011 52.8385C34.011 53.9247 34.8915 54.8052 35.9777 54.8052H53.0221C54.1082 54.8052 54.9888 53.9247 54.9888 52.8385C54.9888 51.7523 54.1083 50.8718 53.0222 50.8718Z" fill="#EDEAE7"/>
</svg>
