<svg width="23" height="25" viewBox="0 0 23 25" fill="none" xmlns="http://www.w3.org/2000/svg">
<path d="M22.2899 23.0088L16.9193 17.0498C18.4488 14.9775 19.2017 12.3322 19.0222 9.66111C18.8428 6.99005 17.7447 4.49778 15.9552 2.70006C14.1657 0.90234 11.8218 -0.0632144 9.40852 0.00321364C6.99527 0.0696417 4.6974 1.16297 2.99044 3.05693C1.28349 4.95089 0.298117 7.50051 0.238248 10.1782C0.178379 12.8558 1.04859 15.4565 2.66881 17.442C4.28902 19.4276 6.53521 20.646 8.94252 20.8451C11.3498 21.0442 13.734 20.2088 15.6017 18.5118L20.9723 24.4658C21.0585 24.5618 21.1609 24.638 21.2737 24.6901C21.3864 24.7422 21.5073 24.7691 21.6295 24.7693C21.7516 24.7695 21.8726 24.7431 21.9856 24.6914C22.0985 24.6398 22.2011 24.564 22.2877 24.4683C22.3742 24.3726 22.4429 24.259 22.4898 24.1339C22.5367 24.0087 22.561 23.8746 22.5612 23.7391C22.5614 23.6035 22.5376 23.4693 22.491 23.344C22.4445 23.2187 22.3761 23.1048 22.2899 23.0088ZM9.63891 18.7948C8.14715 18.7942 6.68905 18.3028 5.44899 17.3828C4.20892 16.4627 3.24258 15.1553 2.67217 13.6259C2.10175 12.0965 1.95287 10.4138 2.24436 8.7905C2.53584 7.16722 3.2546 5.67629 4.30975 4.50624C5.3649 3.3362 6.70904 2.53958 8.17222 2.21713C9.63539 1.89468 11.1519 2.06087 12.5299 2.6947C13.908 3.32852 15.0857 4.40151 15.9142 5.77799C16.7426 7.15446 17.1846 8.7726 17.1843 10.4278C17.1819 12.6469 16.386 14.7743 14.9714 16.343C13.5567 17.9117 11.6389 18.7935 9.63891 18.7948Z" fill="#EDEAE7"/>
</svg>
